<?xml version="1.0" encoding="utf-8"?>
<svg viewBox="0 0 500 500" xmlns="http://www.w3.org/2000/svg">
  <path style="fill: rgb(216, 216, 216); stroke: rgb(0, 0, 0);" d="M 202.186 0.911 L 63.752 66.485 L 133.88 180.328 L 27.322 100 L 0 348.816 C 0 348.816 160.291 366.12 160.291 368.853 C 160.291 371.586 9.108 378.142 10.019 378.142 C 10.93 378.142 142.987 500 142.987 500 L 376.138 500 C 376.138 500 502.732 320.583 500 316.94 C 497.268 313.297 357.013 332.605 357.013 332.605 C 357.013 332.605 323.68 164.845 332.787 177.596 C 341.894 190.347 381.603 300 381.603 300 L 500 289.617 L 500 153.916 L 400 20.947 L 202.186 0.911 Z"/>
</svg>