<?xml version="1.0" encoding="utf-8"?>
<svg viewBox="0 0 500 500" xmlns="http://www.w3.org/2000/svg" xmlns:bx="https://boxy-svg.com">
  <defs>
    <bx:grid x="0" y="0" width="50" height="50"/>
  </defs>
  <path d="M 500 250 C 500 388.071 388.071 500 250 500 C 111.929 500 0 388.071 0 250 C 0 111.929 111.929 0 250 0 C 388.071 0 500 111.929 500 250 Z M 302.246 160.301 L 339 160.84 L 339 339 L 300 339 C 293.925 339 289 343.925 289 350 C 289 356.075 293.925 361 300 361 L 361 361 L 361 139.16 L 350.161 139.001 L 302.568 138.303 C 296.494 138.214 291.497 143.066 291.408 149.141 C 291.319 155.215 296.171 160.212 302.246 160.301 Z M 302.486 259.552 C 308.561 259.508 313.45 254.548 313.407 248.473 C 313.363 242.398 308.403 237.509 302.328 237.552 L 127.261 238.805 L 210.348 157.885 C 214.7 153.647 214.792 146.682 210.553 142.33 C 206.315 137.978 199.35 137.886 194.998 142.125 L 92.276 242.169 C 87.926 246.518 87.926 253.482 92.222 257.778 L 192.222 357.778 C 196.518 362.074 203.482 362.074 207.778 357.778 C 212.074 353.482 212.074 346.518 207.778 342.222 L 126.368 260.812 Z" style="stroke-width: 3px; fill: rgb(186, 218, 85);"/>
</svg>