<?xml version="1.0" encoding="utf-8"?>
<svg viewBox="0 0 500 500" xmlns="http://www.w3.org/2000/svg" xmlns:bx="https://boxy-svg.com">
  <defs>
    <bx:grid x="0" y="0" width="50" height="50"/>
  </defs>
  <path d="M 500 250 C 500 388.071 388.071 500 250 500 C 111.929 500 0 388.071 0 250 C 0 111.929 111.929 0 250 0 C 388.071 0 500 111.929 500 250 Z M 202.528 107.71 C 183.341 114.111 165.646 124.327 150.509 137.743 L 97.231 114.604 L 56.359 185.396 L 103.037 219.967 C 98.988 239.784 98.988 260.216 103.037 280.033 L 56.359 314.604 L 97.231 385.396 L 150.509 362.257 C 165.646 375.673 183.341 385.889 202.528 392.29 L 209.128 450 L 290.872 450 L 297.472 392.29 C 316.659 385.889 334.354 375.673 349.491 362.257 L 402.769 385.396 L 443.641 314.604 L 396.963 280.033 C 401.012 260.216 401.012 239.784 396.963 219.967 L 443.641 185.396 L 402.769 114.604 L 349.491 137.743 C 334.354 124.327 316.659 114.111 297.472 107.71 L 290.872 50 L 209.128 50 Z M 314.953 212.5 C 343.82 262.5 307.736 325.001 250 325.001 C 223.205 325.001 198.445 310.706 185.047 287.5 C 156.18 237.5 192.264 174.999 250 174.999 C 276.795 174.999 301.555 189.294 314.953 212.5 Z" style="fill: rgb(216, 216, 216); stroke: rgb(0, 0, 0);"/>
</svg>